<?xml version="1.0" encoding="UTF-8"?><svg id="_レイヤー_2" xmlns="http://www.w3.org/2000/svg" viewBox="0 0 800 800"><defs><style>.cls-1{fill:#606060;fill-rule:evenodd;}</style></defs><g id="_レイヤー_1-2"><g id="Page-1"><g id="Icon-Set"><path id="comment-1" class="cls-1" d="m400,650c-29.2,0-57.4-3.4-84.5-9.18l-117.7,70.75,1.57-115.98c-90.23-54.25-149.37-143.95-149.37-245.6,0-165.68,156.7-300,350-300s350,134.32,350,300-156.7,300-350,300h0ZM400,0C179.1,0,0,156.73,0,350c0,110.48,58.63,208.85,150,272.98v177.02l175.23-106.32c24.25,4,49.2,6.32,74.77,6.32,220.9,0,400-156.7,400-350S620.9,0,400,0h0Z"/></g></g></g></svg>