<?xml version="1.0" encoding="UTF-8"?><svg id="_レイヤー_2" xmlns="http://www.w3.org/2000/svg" viewBox="0 0 70.92 70.92"><defs><style>.cls-1{fill:#b5b5b6;}.cls-1,.cls-2{stroke-width:0px;}.cls-2{fill:#fff;}</style></defs><g id="_レイヤー_1-2"><circle class="cls-1" cx="35.46" cy="35.46" r="35.46" transform="translate(-10.87 16.27) rotate(-22.5)"/><path class="cls-2" d="m62.92,35.46c0-15.14-12.32-27.46-27.46-27.46s-27.46,12.32-27.46,27.46,12.32,27.46,27.46,27.46,27.46-12.32,27.46-27.46Z"/><path class="cls-1" d="m53.27,31.64l-14.99-14.99c-1.56-1.56-4.09-1.56-5.66,0l-14.99,14.99c-.78.78-1.17,1.8-1.17,2.83s.39,2.05,1.17,2.83c1.56,1.56,4.09,1.56,5.66,0l9.16-9.16v24.29c0,1.66,1.34,3,3,3s3-1.34,3-3v-24.29l9.16,9.16c1.56,1.56,4.09,1.56,5.66,0,1.56-1.56,1.56-4.09,0-5.66Z"/></g></svg>