<?xml version="1.0" encoding="UTF-8"?><svg id="_レイヤー_2" xmlns="http://www.w3.org/2000/svg" viewBox="0 0 417.88 52.24"><defs><style>.cls-1{fill:#b5b5b6;}.cls-1,.cls-2{stroke-width:0px;}.cls-2{fill:#00afec;}</style></defs><g id="_レイヤー_1-2"><path class="cls-2" d="m0,12.88h3.22l9.02,26.24,9.02-26.35h2.28l9.02,26.35,9.02-26.24h3.1l-10.95,30.1h-2.46l-8.9-25.59-8.96,25.59h-2.46L0,12.88Z"/><path class="cls-2" d="m46.85,27.88v-.12c0-8.67,6.09-15.58,14.17-15.58s13.7,6.79,13.7,15.64c0,.53,0,.7-.06,1.17h-24.77c.53,7.44,5.86,11.77,11.71,11.77,4.63,0,7.79-2.05,10.25-4.69l1.99,1.76c-3.05,3.28-6.62,5.62-12.36,5.62-7.85,0-14.64-6.27-14.64-15.58Zm24.77-1.46c-.41-6.03-3.87-11.6-10.72-11.6-5.91,0-10.48,4.98-11.01,11.6h21.73Z"/><path class="cls-2" d="m84.81,36.31v6.44h-2.87V0h2.87v19.56c2.58-3.92,6.38-7.38,12.3-7.38,7.2,0,14.52,5.8,14.52,15.52v.12c0,9.72-7.32,15.64-14.52,15.64-5.97,0-9.84-3.4-12.3-7.14Zm23.72-8.37v-.12c0-7.85-5.45-12.88-11.71-12.88s-12.18,5.21-12.18,12.83v.12c0,7.67,5.97,12.83,12.18,12.83s11.71-4.74,11.71-12.77Z"/><path class="cls-2" d="m116.02,27.93v-.12c0-9.72,7.32-15.64,14.52-15.64,5.97,0,9.84,3.4,12.3,7.14V0h2.87v42.75h-2.87v-6.68c-2.58,3.92-6.38,7.38-12.3,7.38-7.2,0-14.52-5.8-14.52-15.52Zm27-.06v-.12c0-7.67-5.97-12.83-12.18-12.83s-11.71,4.74-11.71,12.77v.12c0,7.85,5.45,12.88,11.71,12.88s12.18-5.21,12.18-12.83Z"/><path class="cls-2" d="m153.68,27.88v-.12c0-8.67,6.09-15.58,14.17-15.58s13.7,6.79,13.7,15.64c0,.53,0,.7-.06,1.17h-24.77c.53,7.44,5.86,11.77,11.71,11.77,4.63,0,7.79-2.05,10.25-4.69l1.99,1.76c-3.05,3.28-6.62,5.62-12.36,5.62-7.85,0-14.64-6.27-14.64-15.58Zm24.77-1.46c-.41-6.03-3.87-11.6-10.72-11.6-5.91,0-10.48,4.98-11.01,11.6h21.73Z"/><path class="cls-1" d="m187.36,39l1.7-2.28c3.28,2.52,6.91,3.92,10.72,3.92,4.04,0,7.2-2.23,7.2-5.68v-.12c0-3.51-3.75-4.8-7.91-5.97-4.86-1.41-10.25-2.87-10.25-8.2v-.12c0-4.8,4.04-8.26,9.84-8.26,3.57,0,7.61,1.29,10.6,3.28l-1.52,2.4c-2.75-1.82-6.03-2.99-9.19-2.99-4.1,0-6.79,2.23-6.79,5.21v.12c0,3.34,4.04,4.57,8.32,5.8,4.8,1.35,9.84,3.1,9.84,8.37v.12c0,5.33-4.57,8.73-10.31,8.73-4.33,0-9.08-1.76-12.24-4.33Z"/><path class="cls-1" d="m218.22,1.17h3.57v3.92h-3.57V1.17Zm.35,11.71h2.87v29.87h-2.87V12.88Z"/><path class="cls-1" d="m230.7,47.67l1.7-2.34c3.57,2.75,7.67,4.22,12.06,4.22,6.85,0,11.71-3.92,11.71-11.6v-4.33c-2.58,3.69-6.56,6.91-12.47,6.91-7.2,0-14.35-5.5-14.35-14.06v-.12c0-8.61,7.14-14.17,14.35-14.17,5.97,0,10.01,3.16,12.47,6.68v-5.97h2.87v25.24c0,4.33-1.41,7.73-3.81,10.13-2.58,2.58-6.44,3.98-10.83,3.98-4.98,0-9.6-1.52-13.7-4.57Zm25.65-21.26v-.12c0-6.91-6.15-11.36-12.36-11.36s-11.54,4.33-11.54,11.3v.12c0,6.73,5.39,11.42,11.54,11.42s12.36-4.57,12.36-11.36Z"/><path class="cls-1" d="m268.18,12.88h2.87v5.56c1.99-3.51,5.33-6.27,10.78-6.27,7.55,0,11.95,5.15,11.95,12.3v18.27h-2.87v-17.74c0-6.15-3.46-10.19-9.49-10.19s-10.37,4.45-10.37,10.66v17.28h-2.87V12.88Z"/><path class="cls-2" d="m306.37,36.31v6.44h-2.87V0h2.87v19.56c2.58-3.92,6.38-7.38,12.3-7.38,7.2,0,14.52,5.8,14.52,15.52v.12c0,9.72-7.32,15.64-14.52,15.64-5.97,0-9.84-3.4-12.3-7.14Zm23.72-8.37v-.12c0-7.85-5.45-12.88-11.71-12.88s-12.18,5.21-12.18,12.83v.12c0,7.67,5.97,12.83,12.18,12.83s11.71-4.74,11.71-12.77Z"/><path class="cls-2" d="m341.39,0h2.87v42.75h-2.87V0Z"/><path class="cls-2" d="m352.93,27.93v-.12c0-8.37,6.5-15.64,15.4-15.64s15.29,7.14,15.29,15.52v.12c0,8.37-6.5,15.64-15.4,15.64s-15.29-7.14-15.29-15.52Zm27.58,0v-.12c0-7.2-5.39-12.94-12.3-12.94s-12.18,5.8-12.18,12.83v.12c0,7.2,5.39,12.94,12.3,12.94s12.18-5.8,12.18-12.83Z"/><path class="cls-2" d="m389.54,47.67l1.7-2.34c3.57,2.75,7.67,4.22,12.06,4.22,6.85,0,11.71-3.92,11.71-11.6v-4.33c-2.58,3.69-6.56,6.91-12.47,6.91-7.2,0-14.35-5.5-14.35-14.06v-.12c0-8.61,7.14-14.17,14.35-14.17,5.97,0,10.01,3.16,12.47,6.68v-5.97h2.87v25.24c0,4.33-1.41,7.73-3.81,10.13-2.58,2.58-6.44,3.98-10.83,3.98-4.98,0-9.6-1.52-13.7-4.57Zm25.65-21.26v-.12c0-6.91-6.15-11.36-12.36-11.36s-11.54,4.33-11.54,11.3v.12c0,6.73,5.39,11.42,11.54,11.42s12.36-4.57,12.36-11.36Z"/></g></svg>