<?xml version="1.0" encoding="UTF-8"?><svg id="_レイヤー_2" xmlns="http://www.w3.org/2000/svg" viewBox="0 0 62.95 61.97"><defs><style>.cls-1{fill:#00a0e9;}</style></defs><g id="_レイヤー_1-2"><path class="cls-1" d="m4,61.97c-1.02,0-2.05-.39-2.83-1.17-1.56-1.56-1.56-4.09,0-5.66l24.15-24.16L1.17,6.83C-.39,5.27-.39,2.73,1.17,1.17,2.73-.39,5.27-.39,6.83,1.17l26.98,26.98c1.56,1.56,1.56,4.09,0,5.66L6.83,60.79c-.78.78-1.8,1.17-2.83,1.17Z"/><path class="cls-1" d="m31.97,61.97c-1.02,0-2.05-.39-2.83-1.17-1.56-1.56-1.56-4.09,0-5.66l24.15-24.16L29.14,6.83c-1.56-1.56-1.56-4.09,0-5.66,1.56-1.56,4.1-1.56,5.66,0l26.98,26.98c1.56,1.56,1.56,4.09,0,5.66l-26.98,26.98c-.78.78-1.8,1.17-2.83,1.17Z"/></g></svg>