<?xml version="1.0" encoding="utf-8"?>
<!-- Generator: Adobe Illustrator 27.8.1, SVG Export Plug-In . SVG Version: 6.00 Build 0)  -->
<svg version="1.1" id="_レイヤー_2" xmlns="http://www.w3.org/2000/svg" xmlns:xlink="http://www.w3.org/1999/xlink" x="0px"
	 y="0px" viewBox="0 0 63 62" style="enable-background:new 0 0 63 62;" xml:space="preserve">
<style type="text/css">
	.st0{fill:#00A0E9;}
</style>
<g id="_レイヤー_1-2">
	<path class="st0" d="M59,0c1,0,2,0.4,2.8,1.2c1.6,1.6,1.6,4.1,0,5.7L37.6,31l24.1,24.2c1.6,1.6,1.6,4.1,0,5.7
		c-1.6,1.6-4.1,1.6-5.7,0l-27-27c-1.6-1.6-1.6-4.1,0-5.7l27-27C56.9,0.4,57.9,0,59,0L59,0z"/>
	<path class="st0" d="M31,0c1,0,2,0.4,2.8,1.2c1.6,1.6,1.6,4.1,0,5.7L9.7,31l24.2,24.2c1.6,1.6,1.6,4.1,0,5.7
		c-1.6,1.6-4.1,1.6-5.7,0l-27-27c-1.6-1.6-1.6-4.1,0-5.7l27-27C28.9,0.4,30,0,31,0L31,0z"/>
</g>
</svg>
