<?xml version="1.0" encoding="UTF-8"?><svg id="_レイヤー_2" xmlns="http://www.w3.org/2000/svg" viewBox="0 0 70.92 70.92"><defs><style>.cls-1{fill:#b5b5b6;}.cls-1,.cls-2{stroke-width:0px;}.cls-2{fill:#fff;}</style></defs><g id="_レイヤー_1-2"><circle class="cls-1" cx="35.46" cy="35.46" r="35.46" transform="translate(-10.87 16.27) rotate(-22.5)"/><path class="cls-2" d="m35.46,8c-15.14,0-27.46,12.32-27.46,27.46s12.32,27.46,27.46,27.46,27.46-12.32,27.46-27.46-12.32-27.46-27.46-27.46Z"/><path class="cls-1" d="m39.63,54.59c-1.02,0-2.05-.39-2.83-1.17l-14.99-14.99c-1.56-1.56-1.56-4.09,0-5.66l14.99-14.99c1.56-1.56,4.09-1.56,5.66,0,1.56,1.56,1.56,4.09,0,5.66l-12.16,12.16,12.16,12.16c1.56,1.56,1.56,4.1,0,5.66-.78.78-1.81,1.17-2.83,1.17Z"/></g></svg>